<svg width="1440" height="101" viewBox="0 0 1440 101" fill="none" xmlns="http://www.w3.org/2000/svg">
<path d="M0 1H1440V101H0V1Z" fill="#C8E2DF" fill-opacity="0.5"/>
<path d="M371 1H786L1020 101H592L371 1Z" fill="#A2D3E1" fill-opacity="0.5"/>
<path d="M371 1H786L1020 101H592L371 1Z" fill="#A2D3E1" fill-opacity="0.5"/>
<path opacity="0.8" d="M786 1H917L1151 101H1020L786 1Z" fill="#3F95A9"/>
<path opacity="0.8" d="M786 1H917L1151 101H1020L786 1Z" fill="#3F95A9"/>
<path d="M1074 100H1206L1440 0H1308L1074 100Z" fill="#3F95A9"/>
<path opacity="0.9" d="M917 1H1027.14L1262 101H1150.99L917 1Z" fill="#44403F"/>
<path opacity="0.9" d="M917 1H1027.14L1262 101H1150.99L917 1Z" fill="#44403F"/>
</svg>
